<?xml version="1.0" encoding="UTF-8"?>
<svg width="120px" height="120px" viewBox="0 0 120 120" version="1.1" xmlns="http://www.w3.org/2000/svg" xmlns:xlink="http://www.w3.org/1999/xlink">
    <title>Artboard</title>
    <g id="Artboard" stroke="none" stroke-width="1" fill="none" fill-rule="evenodd">
        <rect id="Rectangle" fill="#1B2127" x="0" y="0" width="120" height="120" rx="40"></rect>
        <g id="icon" transform="translate(28.000000, 37.293980)" fill="#FFFFFF" fill-rule="nonzero">
            <path d="M18,14.4707259 L15.7894737,11.9295494 L13.5789474,9.70602 L2.84210526,20.50602 L0,23.3648435 L13.5789474,36.70602 L15.7894737,34.4824906 L18,32.2589612 L12.3157895,26.5413141 L9.15789474,23.3648435 L12.3157895,20.1883729 L18,14.4707259 Z M48.2105263,11.9295494 L46,14.4707259 L51.6842105,20.1883729 L54.8421053,23.3648435 L51.6842105,26.5413141 L46,32.2589612 L48.2105263,34.4824906 L50.4210526,36.70602 L61.1578947,25.90602 L64,23.3648435 L50.4210526,9.70602 L48.2105263,11.9295494 Z M28.7190382,46 L22.6546399,44.2701077 L35.2828538,0 L41.3472521,1.72989232 L28.7190382,46 Z" id="Combined-Shape"></path>
        </g>
    </g>
</svg>